<?xml version="1.0" encoding="UTF-8"?>
<!DOCTYPE svg PUBLIC "-//W3C//DTD SVG 1.1//EN" "http://www.w3.org/Graphics/SVG/1.1/DTD/svg11.dtd">
<!-- Creator: CorelDRAW 2020 (64 Bit) -->
<svg xmlns="http://www.w3.org/2000/svg" xml:space="preserve" width="48px" height="48px" version="1.1" style="shape-rendering:geometricPrecision; text-rendering:geometricPrecision; image-rendering:optimizeQuality; fill-rule:evenodd; clip-rule:evenodd"
viewBox="0 0 6.43 6.43"
 xmlns:xlink="http://www.w3.org/1999/xlink"
 xmlns:xodm="http://www.corel.com/coreldraw/odm/2003"
 enable-background="new 0 0 24 24">
 <defs>
  <style type="text/css">
   <![CDATA[
    .fil0 {fill:black;fill-rule:nonzero}
   ]]>
  </style>
 </defs>
 <g id="Camada_x0020_1">
  <metadata id="CorelCorpID_0Corel-Layer"/>
  <g id="_2509029419216">
   <path class="fil0" d="M6.23 6.03l-2.55 0c-0.11,0 -0.2,0.09 -0.2,0.2 0,0.11 0.09,0.2 0.2,0.2l2.55 0c0.11,0 0.2,-0.09 0.2,-0.2 0,-0.11 -0.09,-0.2 -0.2,-0.2z"/>
   <path class="fil0" d="M6.23 5.22l-2.55 0c-0.11,0 -0.2,0.09 -0.2,0.2 0,0.12 0.09,0.21 0.2,0.21l2.55 0c0.11,0 0.2,-0.09 0.2,-0.21 0,-0.11 -0.09,-0.2 -0.2,-0.2l0 0z"/>
   <path class="fil0" d="M2.75 6.03l-2.55 0c-0.11,0 -0.2,0.09 -0.2,0.2 0,0.11 0.09,0.2 0.2,0.2l2.55 0c0.11,0 0.2,-0.09 0.2,-0.2 0,-0.11 -0.09,-0.2 -0.2,-0.2z"/>
   <path class="fil0" d="M2.75 5.22l-2.55 0c-0.11,0 -0.2,0.09 -0.2,0.2 0,0.12 0.09,0.21 0.2,0.21l2.55 0c0.11,0 0.2,-0.09 0.2,-0.21 0,-0.11 -0.09,-0.2 -0.2,-0.2l0 0z"/>
   <path class="fil0" d="M6.23 4.42l-2.55 0c-0.11,0 -0.2,0.09 -0.2,0.2 0,0.11 0.09,0.2 0.2,0.2l2.55 0c0.11,0 0.2,-0.09 0.2,-0.2 0,-0.11 -0.09,-0.2 -0.2,-0.2l0 0z"/>
   <path class="fil0" d="M6.23 3.62l-2.55 0c-0.11,0 -0.2,0.09 -0.2,0.2 0,0.11 0.09,0.2 0.2,0.2l2.55 0c0.11,0 0.2,-0.09 0.2,-0.2 0,-0.11 -0.09,-0.2 -0.2,-0.2z"/>
   <path class="fil0" d="M2.75 4.42l-2.55 0c-0.11,0 -0.2,0.09 -0.2,0.2 0,0.11 0.09,0.2 0.2,0.2l2.55 0c0.11,0 0.2,-0.09 0.2,-0.2 0,-0.11 -0.09,-0.2 -0.2,-0.2l0 0z"/>
   <path class="fil0" d="M2.75 3.62l-2.55 0c-0.11,0 -0.2,0.09 -0.2,0.2 0,0.11 0.09,0.2 0.2,0.2l2.55 0c0.11,0 0.2,-0.09 0.2,-0.2 0,-0.11 -0.09,-0.2 -0.2,-0.2z"/>
   <path class="fil0" d="M5.96 0l-5.49 0c-0.26,0 -0.47,0.21 -0.47,0.47l0 2.28c0,0.25 0.21,0.46 0.47,0.46l5.49 0c0.26,0 0.47,-0.21 0.47,-0.46l0 -2.28c0,-0.26 -0.21,-0.47 -0.47,-0.47l0 0zm-3.82 2.21c0,0.11 -0.09,0.2 -0.2,0.2 -0.11,0 -0.2,-0.09 -0.2,-0.2l0 -0.2 -0.27 0 0 0.2c0,0.11 -0.09,0.2 -0.2,0.2 -0.11,0 -0.2,-0.09 -0.2,-0.2l0 -0.87c0,-0.3 0.24,-0.54 0.54,-0.54 0.29,0 0.53,0.24 0.53,0.54l0 0.87zm0.94 0.2l-0.2 0c-0.11,0 -0.2,-0.09 -0.2,-0.2l0 -1.21c0,-0.11 0.09,-0.2 0.2,-0.2l0.2 0c0.44,0 0.8,0.36 0.8,0.81 0,0.44 -0.36,0.8 -0.8,0.8l0 0zm1.69 -1l0.11 0c0.26,0 0.48,0.22 0.48,0.5 0,0.28 -0.22,0.5 -0.48,0.5l-0.39 0c-0.11,0 -0.2,-0.09 -0.2,-0.2 0,-0.11 0.09,-0.2 0.2,-0.2l0.39 0c0.04,0 0.08,-0.05 0.08,-0.1 0,-0.06 -0.04,-0.1 -0.08,-0.1l-0.11 0c-0.27,0 -0.48,-0.23 -0.48,-0.5 0,-0.28 0.21,-0.51 0.48,-0.51l0.39 0c0.11,0 0.2,0.09 0.2,0.2 0,0.12 -0.09,0.21 -0.2,0.21l-0.39 0c-0.05,0 -0.08,0.04 -0.08,0.1 0,0.05 0.03,0.1 0.08,0.1l0 0z"/>
   <path class="fil0" d="M1.61 1.21c-0.08,0 -0.14,0.06 -0.14,0.13l0 0.27 0.27 0 0 -0.27c0,-0.07 -0.06,-0.13 -0.13,-0.13l0 0z"/>
   <path class="fil0" d="M3.08 1.21l0 0.8c0.22,0 0.4,-0.18 0.4,-0.4 0,-0.22 -0.18,-0.4 -0.4,-0.4l0 0z"/>
  </g>
 </g>
</svg>
