<?xml version="1.0" encoding="UTF-8"?>
<!DOCTYPE svg PUBLIC "-//W3C//DTD SVG 1.1//EN" "http://www.w3.org/Graphics/SVG/1.1/DTD/svg11.dtd">
<!-- Creator: CorelDRAW 2020 (64 Bit) -->
<svg xmlns="http://www.w3.org/2000/svg" xml:space="preserve" width="48px" height="48px" version="1.1" style="shape-rendering:geometricPrecision; text-rendering:geometricPrecision; image-rendering:optimizeQuality; fill-rule:evenodd; clip-rule:evenodd"
viewBox="0 0 10.69 10.69"
 xmlns:xlink="http://www.w3.org/1999/xlink"
 xmlns:xodm="http://www.corel.com/coreldraw/odm/2003">
 <defs>
  <style type="text/css">
   <![CDATA[
    .fil0 {fill:black;fill-rule:nonzero}
   ]]>
  </style>
 </defs>
 <g id="Camada_x0020_1">
  <metadata id="CorelCorpID_0Corel-Layer"/>
  <path class="fil0" d="M10.36 4.01l-4.23 0c-0.19,0 -0.34,0.15 -0.34,0.33 0,0.19 0.15,0.34 0.34,0.34l4.23 0c0.18,0 0.33,-0.15 0.33,-0.34 0,-0.18 -0.15,-0.33 -0.33,-0.33z"/>
  <path class="fil0" d="M10.36 2.67l-4.23 0c-0.19,0 -0.34,0.15 -0.34,0.34 0,0.18 0.15,0.33 0.34,0.33l4.23 0c0.18,0 0.33,-0.15 0.33,-0.33 0,-0.19 -0.15,-0.34 -0.33,-0.34l0 0z"/>
  <path class="fil0" d="M4.57 4.01l-4.24 0c-0.18,0 -0.33,0.15 -0.33,0.33 0,0.19 0.15,0.34 0.33,0.34l4.24 0c0.18,0 0.33,-0.15 0.33,-0.34 0,-0.18 -0.15,-0.33 -0.33,-0.33z"/>
  <path class="fil0" d="M4.57 2.67l-4.24 0c-0.18,0 -0.33,0.15 -0.33,0.34 0,0.18 0.15,0.33 0.33,0.33l4.24 0c0.18,0 0.33,-0.15 0.33,-0.33 0,-0.19 -0.15,-0.34 -0.33,-0.34l0 0z"/>
  <path class="fil0" d="M10.36 1.34l-4.23 0c-0.19,0 -0.34,0.15 -0.34,0.33 0,0.19 0.15,0.33 0.34,0.33l4.23 0c0.18,0 0.33,-0.14 0.33,-0.33 0,-0.18 -0.15,-0.33 -0.33,-0.33l0 0z"/>
  <path class="fil0" d="M10.36 0l-4.23 0c-0.19,0 -0.34,0.15 -0.34,0.33 0,0.19 0.15,0.34 0.34,0.34l4.23 0c0.18,0 0.33,-0.15 0.33,-0.34 0,-0.18 -0.15,-0.33 -0.33,-0.33z"/>
  <path class="fil0" d="M4.57 1.34l-4.24 0c-0.18,0 -0.33,0.15 -0.33,0.33 0,0.19 0.15,0.33 0.33,0.33l4.24 0c0.18,0 0.33,-0.14 0.33,-0.33 0,-0.18 -0.15,-0.33 -0.33,-0.33l0 0z"/>
  <path class="fil0" d="M4.57 0l-4.24 0c-0.18,0 -0.33,0.15 -0.33,0.33 0,0.19 0.15,0.34 0.33,0.34l4.24 0c0.18,0 0.33,-0.15 0.33,-0.34 0,-0.18 -0.15,-0.33 -0.33,-0.33z"/>
  <g id="_2508954569088">
   <path class="fil0" d="M9.91 5.35l-9.13 0c-0.43,0 -0.78,0.35 -0.78,0.78l0 3.78c0,0.43 0.35,0.78 0.78,0.78l9.13 0c0.43,0 0.78,-0.35 0.78,-0.78l0 -3.78c0,-0.43 -0.35,-0.78 -0.78,-0.78l0 0zm-6.35 3.67c0,0.19 -0.15,0.34 -0.33,0.34 -0.18,0 -0.33,-0.15 -0.33,-0.34l0 -0.33 -0.45 0 0 0.33c0,0.19 -0.15,0.34 -0.33,0.34 -0.19,0 -0.34,-0.15 -0.34,-0.34l0 -1.45c0,-0.49 0.4,-0.89 0.89,-0.89 0.49,0 0.89,0.4 0.89,0.89l0 1.45zm1.56 0.34l-0.33 0c-0.19,0 -0.33,-0.15 -0.33,-0.34l0 -2c0,-0.19 0.14,-0.34 0.33,-0.34l0.33 0c0.74,0 1.34,0.6 1.34,1.34 0,0.74 -0.6,1.34 -1.34,1.34l0 0zm2.81 -1.67l0.18 0c0.44,0 0.8,0.37 0.8,0.83 0,0.46 -0.36,0.84 -0.8,0.84l-0.65 0c-0.18,0 -0.33,-0.15 -0.33,-0.34 0,-0.18 0.15,-0.33 0.33,-0.33l0.65 0c0.07,0 0.13,-0.08 0.13,-0.17 0,-0.09 -0.06,-0.17 -0.13,-0.17l-0.18 0c-0.44,0 -0.8,-0.37 -0.8,-0.83 0,-0.46 0.36,-0.84 0.8,-0.84l0.65 0c0.18,0 0.33,0.15 0.33,0.34 0,0.18 -0.15,0.33 -0.33,0.33l-0.65 0c-0.07,0 -0.13,0.08 -0.13,0.17 0,0.09 0.06,0.17 0.13,0.17l0 0z"/>
   <path class="fil0" d="M2.67 7.35c-0.12,0 -0.22,0.1 -0.22,0.22l0 0.45 0.45 0 0 -0.45c0,-0.12 -0.1,-0.22 -0.23,-0.22l0 0z"/>
   <path class="fil0" d="M5.12 7.35l0 1.34c0.37,0 0.67,-0.3 0.67,-0.67 0,-0.37 -0.3,-0.67 -0.67,-0.67l0 0z"/>
  </g>
 </g>
</svg>
