<?xml version="1.0" encoding="UTF-8"?>
<!DOCTYPE svg PUBLIC "-//W3C//DTD SVG 1.1//EN" "http://www.w3.org/Graphics/SVG/1.1/DTD/svg11.dtd">
<!-- Creator: CorelDRAW 2020 (64 Bit) -->
<svg xmlns="http://www.w3.org/2000/svg" xml:space="preserve" width="48px" height="48px" version="1.1" style="shape-rendering:geometricPrecision; text-rendering:geometricPrecision; image-rendering:optimizeQuality; fill-rule:evenodd; clip-rule:evenodd"
viewBox="0 0 24.84 24.9"
 xmlns:xlink="http://www.w3.org/1999/xlink"
 xmlns:xodm="http://www.corel.com/coreldraw/odm/2003">
 <defs>
  <style type="text/css">
   <![CDATA[
    .fil0 {fill:black;fill-rule:nonzero}
   ]]>
  </style>
 </defs>
 <g id="Camada_x0020_1">
  <metadata id="CorelCorpID_0Corel-Layer"/>
  <path class="fil0" d="M24.06 20.43l-9.86 0c-0.43,0 -0.78,0.35 -0.78,0.78 0,0.43 0.35,0.77 0.78,0.77l9.86 0c0.43,0 0.78,-0.34 0.78,-0.77 0,-0.43 -0.35,-0.78 -0.78,-0.78z"/>
  <path class="fil0" d="M24.06 17.51l-9.86 0c-0.43,0 -0.78,0.35 -0.78,0.78 0,0.43 0.35,0.78 0.78,0.78l9.86 0c0.43,0 0.78,-0.35 0.78,-0.78 0,-0.43 -0.35,-0.78 -0.78,-0.78l0 0z"/>
  <path class="fil0" d="M24.06 2.92l-9.86 0c-0.43,0 -0.78,0.35 -0.78,0.78 0,0.43 0.35,0.77 0.78,0.77l9.86 0c0.43,0 0.78,-0.34 0.78,-0.77 0,-0.43 -0.35,-0.78 -0.78,-0.78l0 0z"/>
  <path class="fil0" d="M24.06 0l-9.86 0c-0.43,0 -0.78,0.35 -0.78,0.78 0,0.43 0.35,0.78 0.78,0.78l9.86 0c0.43,0 0.78,-0.35 0.78,-0.78 0,-0.43 -0.35,-0.78 -0.78,-0.78z"/>
  <path class="fil0" d="M24.06 8.75l-9.86 0c-0.43,0 -0.78,0.35 -0.78,0.78 0,0.43 0.35,0.78 0.78,0.78l9.86 0c0.43,0 0.78,-0.35 0.78,-0.78 0,-0.43 -0.35,-0.77 -0.78,-0.77l0 -0.01z"/>
  <path class="fil0" d="M24.06 5.84l-9.86 0c-0.43,0 -0.78,0.35 -0.78,0.77 0,0.43 0.35,0.78 0.78,0.78l9.86 0c0.43,0 0.78,-0.35 0.78,-0.78 0,-0.42 -0.35,-0.77 -0.78,-0.77z"/>
  <path class="fil0" d="M24.06 14.59l-9.86 0c-0.43,0 -0.78,0.35 -0.78,0.78 0,0.43 0.35,0.78 0.78,0.78l9.86 0c0.43,0 0.78,-0.35 0.78,-0.78 0,-0.43 -0.35,-0.78 -0.78,-0.78l0 0z"/>
  <path class="fil0" d="M24.06 11.67l-9.86 0c-0.43,0 -0.78,0.35 -0.78,0.78 0,0.43 0.35,0.78 0.78,0.78l9.86 0c0.43,0 0.78,-0.35 0.78,-0.78 0,-0.43 -0.35,-0.78 -0.78,-0.78z"/>
  <path class="fil0" d="M24.06 23.35l-9.86 0c-0.43,0 -0.78,0.35 -0.78,0.78 0,0.42 0.35,0.77 0.78,0.77l9.86 0c0.43,0 0.78,-0.35 0.78,-0.77 0,-0.43 -0.35,-0.78 -0.78,-0.78z"/>
  <path class="fil0" d="M10.64 20.43l-9.86 0c-0.43,0 -0.78,0.35 -0.78,0.78 0,0.43 0.35,0.77 0.78,0.77l9.86 0c0.43,0 0.77,-0.34 0.77,-0.77 0,-0.43 -0.34,-0.78 -0.77,-0.78z"/>
  <path class="fil0" d="M10.64 17.51l-9.86 0c-0.43,0 -0.78,0.35 -0.78,0.78 0,0.43 0.35,0.78 0.78,0.78l9.86 0c0.43,0 0.77,-0.35 0.77,-0.78 0,-0.43 -0.34,-0.78 -0.77,-0.78l0 0z"/>
  <path class="fil0" d="M10.64 2.92l-9.86 0c-0.43,0 -0.78,0.35 -0.78,0.78 0,0.43 0.35,0.77 0.78,0.77l9.86 0c0.43,0 0.77,-0.34 0.77,-0.77 0,-0.43 -0.34,-0.78 -0.77,-0.78l0 0z"/>
  <path class="fil0" d="M10.64 0l-9.86 0c-0.43,0 -0.78,0.35 -0.78,0.78 0,0.43 0.35,0.78 0.78,0.78l9.86 0c0.43,0 0.77,-0.35 0.77,-0.78 0,-0.43 -0.34,-0.78 -0.77,-0.78z"/>
  <path class="fil0" d="M10.64 8.75l-9.86 0c-0.43,0 -0.78,0.35 -0.78,0.78 0,0.43 0.35,0.78 0.78,0.78l9.86 0c0.43,0 0.77,-0.35 0.77,-0.78 0,-0.43 -0.34,-0.77 -0.77,-0.77l0 -0.01z"/>
  <path class="fil0" d="M10.64 5.84l-9.86 0c-0.43,0 -0.78,0.35 -0.78,0.77 0,0.43 0.35,0.78 0.78,0.78l9.86 0c0.43,0 0.77,-0.35 0.77,-0.78 0,-0.42 -0.34,-0.77 -0.77,-0.77z"/>
  <path class="fil0" d="M10.64 14.59l-9.86 0c-0.43,0 -0.78,0.35 -0.78,0.78 0,0.43 0.35,0.78 0.78,0.78l9.86 0c0.43,0 0.77,-0.35 0.77,-0.78 0,-0.43 -0.34,-0.78 -0.77,-0.78l0 0z"/>
  <path class="fil0" d="M10.64 11.67l-9.86 0c-0.43,0 -0.78,0.35 -0.78,0.78 0,0.43 0.35,0.78 0.78,0.78l9.86 0c0.43,0 0.77,-0.35 0.77,-0.78 0,-0.43 -0.34,-0.78 -0.77,-0.78z"/>
  <path class="fil0" d="M10.64 23.35l-9.86 0c-0.43,0 -0.78,0.35 -0.78,0.78 0,0.42 0.35,0.77 0.78,0.77l9.86 0c0.43,0 0.77,-0.35 0.77,-0.77 0,-0.43 -0.34,-0.78 -0.77,-0.78z"/>
 </g>
</svg>
