<?xml version="1.0" encoding="UTF-8"?>
<!DOCTYPE svg PUBLIC "-//W3C//DTD SVG 1.1//EN" "http://www.w3.org/Graphics/SVG/1.1/DTD/svg11.dtd">
<!-- Creator: CorelDRAW 2020 (64 Bit) -->
<svg xmlns="http://www.w3.org/2000/svg" xml:space="preserve" width="48px" height="48px" version="1.1" style="shape-rendering:geometricPrecision; text-rendering:geometricPrecision; image-rendering:optimizeQuality; fill-rule:evenodd; clip-rule:evenodd"
viewBox="0 0 37.4 37.4"
 xmlns:xlink="http://www.w3.org/1999/xlink"
 xmlns:xodm="http://www.corel.com/coreldraw/odm/2003">
 <defs>
  <style type="text/css">
   <![CDATA[
    .fil0 {fill:black;fill-rule:nonzero}
   ]]>
  </style>
 </defs>
 <g id="Camada_x0020_1">
  <metadata id="CorelCorpID_0Corel-Layer"/>
  <path class="fil0" d="M36.23 35.06l-14.8 0c-0.65,0 -1.17,0.52 -1.17,1.17 0,0.64 0.52,1.17 1.17,1.17l14.8 0c0.64,0 1.17,-0.53 1.17,-1.17 0,-0.65 -0.53,-1.17 -1.17,-1.17z"/>
  <path class="fil0" d="M36.23 30.39l-14.8 0c-0.65,0 -1.17,0.52 -1.17,1.16 0,0.65 0.52,1.17 1.17,1.17l14.8 0c0.64,0 1.17,-0.52 1.17,-1.17 0,-0.64 -0.53,-1.16 -1.17,-1.16l0 0z"/>
  <path class="fil0" d="M15.97 35.06l-14.8 0c-0.65,0 -1.17,0.52 -1.17,1.17 0,0.64 0.52,1.17 1.17,1.17l14.8 0c0.65,0 1.17,-0.53 1.17,-1.17 0,-0.65 -0.52,-1.17 -1.17,-1.17z"/>
  <path class="fil0" d="M15.97 30.39l-14.8 0c-0.65,0 -1.17,0.52 -1.17,1.16 0,0.65 0.52,1.17 1.17,1.17l14.8 0c0.65,0 1.17,-0.52 1.17,-1.17 0,-0.64 -0.52,-1.16 -1.17,-1.16l0 0z"/>
  <path class="fil0" d="M36.23 4.67l-14.8 0c-0.65,0 -1.17,0.53 -1.17,1.17 0,0.65 0.52,1.17 1.17,1.17l14.8 0c0.64,0 1.17,-0.52 1.17,-1.17 0,-0.64 -0.53,-1.17 -1.17,-1.17l0 0z"/>
  <path class="fil0" d="M36.23 0l-14.8 0c-0.65,0 -1.17,0.52 -1.17,1.17 0,0.64 0.52,1.17 1.17,1.17l14.8 0c0.64,0 1.17,-0.53 1.17,-1.17 0,-0.65 -0.53,-1.17 -1.17,-1.17z"/>
  <path class="fil0" d="M15.97 4.67l-14.8 0c-0.65,0 -1.17,0.53 -1.17,1.17 0,0.65 0.52,1.17 1.17,1.17l14.8 0c0.65,0 1.17,-0.52 1.17,-1.17 0,-0.64 -0.52,-1.17 -1.17,-1.17l0 0z"/>
  <path class="fil0" d="M15.97 0l-14.8 0c-0.65,0 -1.17,0.52 -1.17,1.17 0,0.64 0.52,1.17 1.17,1.17l14.8 0c0.65,0 1.17,-0.53 1.17,-1.17 0,-0.65 -0.52,-1.17 -1.17,-1.17z"/>
  <g id="_2509037627040">
   <path class="fil0" d="M34.67 9.35l-31.94 0c-1.51,0 -2.73,1.22 -2.73,2.73l0 13.24c0,1.5 1.22,2.73 2.73,2.73l31.94 0c1.5,0 2.73,-1.23 2.73,-2.73l0 -13.24c0,-1.51 -1.23,-2.73 -2.73,-2.73l0 0zm-22.2 12.85c0,0.65 -0.53,1.17 -1.17,1.17 -0.65,0 -1.17,-0.52 -1.17,-1.17l0 -1.16 -1.56 0 0 1.16c0,0.65 -0.52,1.17 -1.17,1.17 -0.64,0 -1.17,-0.52 -1.17,-1.17l0 -5.06c0,-1.72 1.4,-3.12 3.12,-3.12 1.72,0 3.12,1.4 3.12,3.12l0 5.06zm5.45 1.17l-1.17 0c-0.64,0 -1.17,-0.52 -1.17,-1.17l0 -7.01c0,-0.64 0.53,-1.17 1.17,-1.17l1.17 0c2.58,0 4.67,2.1 4.67,4.68 0,2.58 -2.09,4.67 -4.67,4.67l0 0zm9.8 -5.84l0.65 0c1.54,0 2.79,1.31 2.79,2.92 0,1.61 -1.25,2.92 -2.79,2.92l-2.27 0c-0.65,0 -1.17,-0.52 -1.17,-1.17 0,-0.64 0.52,-1.16 1.17,-1.16l2.27 0c0.25,0 0.46,-0.27 0.46,-0.59 0,-0.31 -0.21,-0.58 -0.46,-0.58l-0.65 0c-1.54,0 -2.79,-1.31 -2.79,-2.92 0,-1.62 1.25,-2.93 2.79,-2.93l2.28 0c0.64,0 1.16,0.53 1.16,1.17 0,0.65 -0.52,1.17 -1.16,1.17l-2.28 0c-0.24,0 -0.45,0.27 -0.45,0.59 0,0.31 0.21,0.58 0.45,0.58l0 0z"/>
   <path class="fil0" d="M9.35 16.36c-0.43,0 -0.78,0.35 -0.78,0.78l0 1.56 1.56 0 0 -1.56c0,-0.43 -0.35,-0.78 -0.78,-0.78l0 0z"/>
   <path class="fil0" d="M17.92 16.36l0 4.68c1.29,0 2.34,-1.05 2.34,-2.34 0,-1.29 -1.05,-2.34 -2.34,-2.34l0 0z"/>
  </g>
 </g>
</svg>
