<?xml version="1.0" encoding="UTF-8"?>
<!DOCTYPE svg PUBLIC "-//W3C//DTD SVG 1.1//EN" "http://www.w3.org/Graphics/SVG/1.1/DTD/svg11.dtd">
<!-- Creator: CorelDRAW 2020 (64 Bit) -->
<svg xmlns="http://www.w3.org/2000/svg" xml:space="preserve" width="20px" height="20px" version="1.1" style="shape-rendering:geometricPrecision; text-rendering:geometricPrecision; image-rendering:optimizeQuality; fill-rule:evenodd; clip-rule:evenodd"
viewBox="0 0 24.71 24.71"
 xmlns:xlink="http://www.w3.org/1999/xlink"
 xmlns:xodm="http://www.corel.com/coreldraw/odm/2003">
 <defs>
  <style type="text/css">
   <![CDATA[
    .fil0 {fill:#FFF212}
    .fil1 {fill:#373435;fill-rule:nonzero}
   ]]>
  </style>
 </defs>
 <g id="Camada_x0020_1">
  <metadata id="CorelCorpID_0Corel-Layer"/>
  <rect class="fil0" width="24.71" height="24.71" rx="2.01" ry="2.01"/>
  <path class="fil1" d="M6.32 14.75l-2.5 0 -0.36 1.17 -2.25 0 2.69 -7.13 2.41 0 2.67 7.13 -2.31 0 -0.35 -1.17zm-0.47 -1.55l-0.78 -2.56 -0.78 2.56 1.56 0z"/>
  <path id="1" class="fil1" d="M9.7 8.79l3.28 0c0.64,0 1.16,0.09 1.56,0.27 0.4,0.17 0.73,0.42 0.99,0.75 0.26,0.33 0.44,0.71 0.56,1.14 0.12,0.44 0.17,0.9 0.17,1.38 0,0.76 -0.08,1.35 -0.26,1.77 -0.17,0.42 -0.41,0.78 -0.72,1.06 -0.31,0.28 -0.64,0.47 -0.99,0.57 -0.48,0.13 -0.92,0.19 -1.31,0.19l-3.28 0 0 -7.13zm2.2 1.62l0 3.89 0.55 0c0.46,0 0.79,-0.05 0.98,-0.15 0.2,-0.11 0.35,-0.28 0.46,-0.54 0.11,-0.25 0.16,-0.67 0.16,-1.24 0,-0.75 -0.12,-1.27 -0.37,-1.55 -0.24,-0.27 -0.65,-0.41 -1.22,-0.41l-0.56 0z"/>
  <path id="2" class="fil1" d="M17.04 13.56l2.09 -0.13c0.05,0.34 0.14,0.6 0.28,0.78 0.22,0.28 0.55,0.43 0.97,0.43 0.31,0 0.56,-0.08 0.73,-0.22 0.17,-0.15 0.25,-0.32 0.25,-0.52 0,-0.18 -0.08,-0.35 -0.24,-0.49 -0.16,-0.15 -0.54,-0.28 -1.12,-0.42 -0.97,-0.21 -1.66,-0.5 -2.07,-0.86 -0.41,-0.36 -0.62,-0.82 -0.62,-1.37 0,-0.37 0.1,-0.71 0.32,-1.04 0.21,-0.33 0.53,-0.58 0.95,-0.77 0.43,-0.18 1.02,-0.28 1.76,-0.28 0.91,0 1.6,0.17 2.08,0.51 0.48,0.34 0.76,0.88 0.85,1.62l-2.07 0.12c-0.05,-0.32 -0.17,-0.56 -0.35,-0.7 -0.17,-0.15 -0.42,-0.22 -0.73,-0.22 -0.25,0 -0.45,0.05 -0.58,0.16 -0.13,0.11 -0.19,0.24 -0.19,0.4 0,0.11 0.05,0.21 0.16,0.3 0.1,0.1 0.34,0.18 0.73,0.26 0.96,0.21 1.65,0.42 2.07,0.63 0.41,0.22 0.72,0.48 0.91,0.79 0.19,0.32 0.28,0.67 0.28,1.06 0,0.46 -0.12,0.88 -0.38,1.26 -0.25,0.39 -0.6,0.68 -1.06,0.88 -0.45,0.2 -1.02,0.3 -1.71,0.3 -1.21,0 -2.05,-0.23 -2.52,-0.7 -0.46,-0.47 -0.73,-1.06 -0.79,-1.78z"/>
 </g>
</svg>
